<svg xmlns="http://www.w3.org/2000/svg" version="1.1" xmlns:xlink="http://www.w3.org/1999/xlink" xmlns:svgjs="http://svgjs.dev/svgjs" width="1500" height="935" viewBox="0 0 1500 935"><g transform="matrix(1,0,0,1,-0.9090909090909918,0.3785425101214628)"><svg viewBox="0 0 396 247" data-background-color="#ffffff" preserveAspectRatio="xMidYMid meet" height="935" width="1500" xmlns="http://www.w3.org/2000/svg" xmlns:xlink="http://www.w3.org/1999/xlink"><g id="tight-bounds" transform="matrix(1,0,0,1,0.2400000000000091,-0.09999999999999432)"><svg viewBox="0 0 395.52 247.2" height="247.2" width="395.52"><g><svg></svg></g><g><svg viewBox="0 0 395.52 247.2" height="247.2" width="395.52"><g><path d="M55.039 247.2l37.674-65.254h4.112l-35.506 61.498h272.882l-35.506-61.498h4.112l37.674 65.254zM197.76 0l37.674 65.254-4.112 0-33.562-58.132-33.562 58.132-4.112 0z" fill="#ffdb99" fill-rule="nonzero" stroke="none" stroke-width="1" stroke-linecap="butt" stroke-linejoin="miter" stroke-miterlimit="10" stroke-dasharray="" stroke-dashoffset="0" font-family="none" font-weight="none" font-size="none" text-anchor="none" style="mix-blend-mode: normal" data-fill-palette-color="tertiary"></path></g><g transform="matrix(1,0,0,1,0,81.92400197723201)"><svg viewBox="0 0 395.52 83.35199604553597" height="83.35199604553597" width="395.52"><g><svg viewBox="0 0 525.0772141955122 110.65491980487806" height="83.35199604553597" width="395.52"><g transform="matrix(1,0,0,1,0,15.293118439024397)"><svg viewBox="0 0 395.52 80.06868292682927" height="80.06868292682927" width="395.52"><g id="textblocktransform"><svg viewBox="0 0 395.52 80.06868292682927" height="80.06868292682927" width="395.52" id="textblock"><g><svg viewBox="0 0 395.52 80.06868292682927" height="80.06868292682927" width="395.52"><g transform="matrix(1,0,0,1,0,0)"><svg width="395.52" viewBox="4.5 -36.75 184.48 37.35" height="80.06868292682927" data-palette-color="#f6d4a0"><path d="M9.25 0L4.5 0 4.5-35 9.25-35 9.25 0ZM22.25 0L17.75 0 17.75-26 22.1-26 22.1-20.35Q22.75-22 23.85-23.43 24.95-24.85 26.6-25.73 28.25-26.6 30.45-26.6L30.45-26.6Q31.2-26.6 31.95-26.53 32.7-26.45 33.2-26.3L33.2-26.3 31.85-21.65Q30.9-22.05 29.6-22.05L29.6-22.05Q27.75-22.05 26.07-21 24.4-19.95 23.32-17.75 22.25-15.55 22.25-12.15L22.25-12.15 22.25 0ZM42.2 0L37.7 0 37.7-26 42.2-26 42.2 0ZM39.95-30.45L39.95-30.45Q38.65-30.45 37.72-31.4 36.8-32.35 36.8-33.6L36.8-33.6Q36.8-35.05 37.65-35.9 38.5-36.75 39.95-36.75L39.95-36.75Q41.25-36.75 42.17-35.83 43.1-34.9 43.1-33.6L43.1-33.6Q43.1-32.2 42.25-31.33 41.4-30.45 39.95-30.45ZM57.19 0.6L57.19 0.6Q54.24 0.6 51.87-0.15 49.49-0.9 47.94-2.1L47.94-2.1 49.84-5.85Q51.14-4.75 53.12-4.03 55.09-3.3 57.34-3.3L57.34-3.3Q60.14-3.3 61.57-4.23 62.99-5.15 62.99-6.6L62.99-6.6Q62.99-7.65 62.47-8.45 61.94-9.25 60.54-10.03 59.14-10.8 56.49-11.7L56.49-11.7Q52.84-12.95 51.02-14.68 49.19-16.4 49.19-19.45L49.19-19.45Q49.19-22.45 51.82-24.53 54.44-26.6 59.09-26.6L59.09-26.6Q61.59-26.6 63.54-26.08 65.49-25.55 67.04-24.75L67.04-24.75 65.79-21.05Q64.44-21.85 62.72-22.35 60.99-22.85 58.89-22.85L58.89-22.85Q56.29-22.85 54.94-21.8 53.59-20.75 53.59-19.5L53.59-19.5Q53.59-18.3 54.64-17.45 55.69-16.6 58.74-15.6L58.74-15.6Q63.69-13.95 65.64-11.95 67.59-9.95 67.59-6.95L67.59-6.95Q67.59-3.45 64.77-1.43 61.94 0.6 57.19 0.6ZM82.84 0L78.09 0 78.09-30.8 67.34-30.8 67.34-35 93.59-35 93.59-30.8 82.84-30.8 82.84 0ZM103.09 0.6L103.09 0.6Q100.84 0.6 98.84-0.35 96.84-1.3 95.59-3.43 94.34-5.55 94.34-9.1L94.34-9.1 94.34-26 98.84-26 98.84-9.7Q98.84-6.65 100.14-5.03 101.44-3.4 103.94-3.4L103.94-3.4Q105.99-3.4 107.91-4.23 109.84-5.05 111.34-6.45L111.34-6.45 111.34-26 115.84-26 115.84-6.75Q115.84-4.6 116.76-3.93 117.69-3.25 118.79-3.25L118.79-3.25 117.84 0.25Q113.19 0.25 112.09-3.45L112.09-3.45Q110.34-1.65 108.04-0.53 105.74 0.6 103.09 0.6ZM133.89 0.6L133.89 0.6Q130.14 0.6 127.96-1.88 125.79-4.35 125.79-8.95L125.79-8.95 125.79-21.15 121.29-21.15 121.29-25.05 125.89-25.05 126.84-33.25 130.29-33.25 130.29-25.05 137.49-25.05 137.49-21.15 130.29-21.15 130.29-8.6Q130.29-5.7 131.51-4.55 132.74-3.4 134.44-3.4L134.44-3.4Q135.69-3.4 136.81-3.8 137.94-4.2 138.89-4.75L138.89-4.75 140.14-1.15Q139.14-0.55 137.44 0.03 135.74 0.6 133.89 0.6ZM154.58 0.6L154.58 0.6Q150.88 0.6 147.93-1.13 144.98-2.85 143.31-5.93 141.63-9 141.63-13L141.63-13Q141.63-17.2 143.33-20.25 145.03-23.3 147.98-24.95 150.93-26.6 154.58-26.6L154.58-26.6Q158.23-26.6 161.16-24.95 164.08-23.3 165.81-20.28 167.53-17.25 167.53-13.1L167.53-13.1Q167.53-8.95 165.83-5.88 164.13-2.8 161.21-1.1 158.28 0.6 154.58 0.6ZM154.58-3.4L154.58-3.4Q158.53-3.4 160.73-6.08 162.93-8.75 162.93-13L162.93-13Q162.93-15.6 161.83-17.78 160.73-19.95 158.86-21.28 156.98-22.6 154.58-22.6L154.58-22.6Q150.63-22.6 148.43-20 146.23-17.4 146.23-13.1L146.23-13.1Q146.23-10.5 147.33-8.28 148.43-6.05 150.31-4.73 152.18-3.4 154.58-3.4ZM178.03 0L173.53 0 173.53-26 177.88-26 177.88-20.35Q178.53-22 179.63-23.43 180.73-24.85 182.38-25.73 184.03-26.6 186.23-26.6L186.23-26.6Q186.98-26.6 187.73-26.53 188.48-26.45 188.98-26.3L188.98-26.3 187.63-21.65Q186.68-22.05 185.38-22.05L185.38-22.05Q183.53-22.05 181.86-21 180.18-19.95 179.11-17.75 178.03-15.55 178.03-12.15L178.03-12.15 178.03 0Z" opacity="1" transform="matrix(1,0,0,1,0,0)" fill="#f6d4a0" class="wordmark-text-0" data-fill-palette-color="primary" id="text-0"></path></svg></g></svg></g></svg></g></svg></g><g transform="matrix(1,0,0,1,414.42229439063414,0)"><svg viewBox="0 0 110.65491980487806 110.65491980487806" height="110.65491980487806" width="110.65491980487806"><g data-palette-color="#3278ff"><rect width="30.245678080000005" height="110.65491980487806" fill="#3278ff" stroke="transparent" data-fill-palette-color="accent" x="0" fill-opacity="1"></rect><rect width="30.245678080000005" height="110.65491980487806" fill="#3278ff" stroke="transparent" data-fill-palette-color="accent" x="36.88497326829269" fill-opacity="0.75"></rect><rect width="30.245678080000005" height="110.65491980487806" fill="#3278ff" stroke="transparent" data-fill-palette-color="accent" x="73.76994653658538" fill-opacity="0.5"></rect></g></svg></g></svg></g></svg></g></svg></g><defs></defs></svg><rect width="395.52" height="247.2" fill="none" stroke="none" visibility="hidden"></rect></g></svg></g></svg>